<?xml version="1.0" encoding="utf-8"?>
<!-- Generator: Adobe Illustrator 23.0.1, SVG Export Plug-In . SVG Version: 6.00 Build 0)  -->
<svg version="1.1" id="Layer_1" xmlns="http://www.w3.org/2000/svg" xmlns:xlink="http://www.w3.org/1999/xlink" x="0px" y="0px"
	 viewBox="0 0 530.17 130.31" style="enable-background:new 0 0 530.17 130.31;" xml:space="preserve">
<style type="text/css">
	.st0{fill:#B9FC2B;}
	.st1{fill:#65C7C4;}
	.st2{fill:#BDFE34;}
	.st3{fill:#1A1C41;}
	.st4{fill:#60C1BF;}
</style>
<g>
	<path class="st0" d="M115.06,65.14c0,14.99-0.03,29.98,0.02,44.97c0.02,4.67-1.36,8.87-4.12,12.53c-3.82,5.09-8.84,7.6-15.42,7.56
		c-25.15-0.16-50.31-0.45-75.45,0.1C7.65,130.58-0.06,119.27,0,110.12C0.18,84.3,0.06,58.48,0.06,32.66c0-4.66-0.11-9.33,0.06-13.99
		C0.43,10.39,6.44,2.83,14.15,0.6c1.82-0.53,3.62-0.44,5.44-0.45C44.9,0.13,70.22,0.44,95.54,0c11.36-0.19,19.45,10.04,19.5,19.16
		c0.06,11.66,0.03,23.32,0.03,34.98C115.07,57.81,115.06,61.47,115.06,65.14z M112.06,65.14c0-7.99,0-15.98,0-23.97
		c0-7.16,0.13-14.32-0.05-21.48c-0.23-9.33-6.75-16.48-15.25-16.51c-26.14-0.1-52.28-0.06-78.41-0.02C12.94,3.17,8.84,5.75,6,10.3
		c-2.17,3.48-2.97,7.28-2.97,11.39c0.06,28.97,0.03,57.94,0.03,86.9c0,1-0.03,2,0.05,3c0.72,8.78,7.11,15.48,15.24,15.51
		c26.14,0.1,52.28,0.06,78.41,0.02c5.42-0.01,9.52-2.58,12.35-7.14c2.06-3.32,2.98-6.94,2.96-10.89
		C112.02,94.44,112.06,79.79,112.06,65.14z"/>
	<path class="st1" d="M242.29,24.27c2.31,0,4.28,0,6.57,0c5.24,8.29,10.92,16.4,16.06,26.06c0-9.15,0-17.41,0-25.92
		c2.51,0,4.58,0,6.9,0c0,12.2,0,24.26,0,36.53c-2.51,0-4.79,0-7.58,0c-5.31-8.15-10.89-16.49-16.01-25.27
		c1.28,8.26,0.76,16.52,0.72,24.92c-2.13,1-4.24,0.47-6.67,0.47C242.29,48.84,242.29,36.79,242.29,24.27z"/>
	<path class="st1" d="M529.77,61c-2.75,0-5.06,0-7.58,0c-5.21-8.42-10.99-16.48-15.88-25.27c1.2,8.34,0.68,16.65,0.66,25.2
		c-2.47,0.28-4.54,0.34-6.81-0.04c0-12.19,0-24.13,0-36.24c2.01-0.99,4.16-0.33,6.55-0.56c5.44,8.45,11.12,16.72,16.33,26.35
		c0-9.15,0-17.42,0-25.82c2.26-0.88,4.36-0.31,6.74-0.52C529.77,36.5,529.77,48.56,529.77,61z"/>
	<path class="st1" d="M177.92,61.14c-6.09,0.48-13.05-3.22-15.53-11.33c-1.87-6.11-1.44-11.99,1.28-17.77
		c3.29-7,12.18-9.48,17.1-8.6c6.76,1.21,12.48,4.51,14.46,13.6c0.96,4.43,0.62,8.6-0.63,12.64
		C192.51,56.37,186.64,61.53,177.92,61.14z M178.86,29.14c-3.86-0.87-7.66,3.31-8.61,6.89c-1.25,4.68-1.4,9.4,0.64,14.05
		c1.61,3.66,4.32,5.94,7.73,5.92c3.43-0.02,6.17-2.26,7.63-6.02c1.8-4.63,1.75-9.36,0.61-14.05
		C185.75,31.31,183.07,29.21,178.86,29.14z"/>
	<path class="st1" d="M326.6,58.34c-5.65,2.93-11.27,3.3-16.9,2.64c-7.15-0.84-12.43-6.46-13.69-13.81
		c-0.5-2.92-0.56-5.73-0.27-8.77c1.08-11.5,13.57-16.91,22.95-14.45c1.71,0.45,3.75-0.24,5.27,1.71c0.47,0.66,0.21,1.69,0.2,2.66
		c-0.01,0.8,0.2,1.68-0.71,2.71c-3.08-1.14-6.51-0.82-9.9-1.12c-4.37-0.38-9.6,4.27-9.53,8.96c0.04,3.29-0.48,6.58,0.73,9.85
		c1.94,5.3,3.46,6.56,9.02,6.54c1.63-0.01,3.31,0.21,4.81-0.48c0.87-1.33,0.47-2.7,0.49-3.98c0.02-1.13,0.34-2.33-0.43-3.4
		c-1.41-1-3.34,0.22-5-1.36c-0.87-1.16-0.51-2.76-0.15-4.64c4.29,0,8.54,0,13.12,0C326.6,46.99,326.6,52.55,326.6,58.34z"/>
	<path class="st1" d="M334.29,24.02c5.33,0,10.3-0.1,15.28,0.03c4.4,0.11,8.52,1.46,9.89,6.04c1.38,4.64,1.82,9.54-2.17,13.5
		c-0.71,0.7-1.44,1.37-2.29,2.16c2.4,4.91,4.77,9.78,7.29,14.94c-2.91,0.72-5.48,0.5-8.03,0.24c-3.21-4.05-2.89-9.67-6.46-13.4
		c-1.98-0.68-3.96-0.38-6.17-0.21c-1.15,4.34,0.11,8.85-0.73,13.42c-2.06,0.73-4.17,0.36-6.61,0.29
		C334.29,48.84,334.29,36.79,334.29,24.02z M341.37,29.14c-0.21,4.2-0.54,8.2,0.2,11.84c1.16,1.17,2.19,1.01,3.18,1.02
		c1,0.01,2.02,0.12,2.99-0.04c3.57-0.61,5.68-3.78,5.27-7.79c-0.35-3.46-2.07-4.89-6.1-5.01C345.25,29.1,343.59,29.14,341.37,29.14z
		"/>
	<path class="st1" d="M203.29,24.42c2.28-0.42,4.23-0.38,6.5-0.04c0.95,4.82-0.06,9.81,0.64,14.96c4.63,1.47,9.27,0.14,14.37,0.89
		c0-5.43,0-10.48,0-15.64c2.6-0.7,4.68-0.46,7.09-0.32c0,12.22,0,24.26,0,36.51c-2.08,0.68-4.18,0.21-6.76,0.39
		c0-5.39,0-10.45,0-15.76c-5.07,0-9.67,0-14.55,0c-0.99,4.96,0.09,10.11-0.64,15.33c-2.1,0.71-4.21,0.37-6.65,0.29
		C203.29,48.84,203.29,36.8,203.29,24.42z"/>
	<path class="st1" d="M377.34,24.27c2.68,0,4.98,0,7.95,0c4.51,11.95,9.08,24.05,13.75,36.44c-2.91,0.78-5.62,0.39-8.26,0.32
		c-1.33-2.56-1.5-5.31-3.15-7.69c-4.15,0-8.43,0-12.76,0c-1.74,2.06-1.37,4.98-2.78,7.38c-2.54,0.82-5.12,0.24-8.45,0.47
		C368.36,48.44,372.85,36.35,377.34,24.27z M381.5,32.08c-2.12,5.39-3.8,10.38-5.24,15.92c3.49-0.15,6.56,0.42,9.91-0.52
		C384.63,42.39,383.16,37.54,381.5,32.08z"/>
	<path class="st1" d="M467.71,60.95c-2.37,0-4.81,0-7.26,0c0.28-3.35,10.16-30.57,13.22-36.54c1.24-0.55,2.59-0.24,3.89-0.26
		c1.14-0.02,2.33-0.27,3.98,0.72c4.33,11.5,8.84,23.49,13.48,35.84c-2.85,0.8-5.55,0.34-8.3,0.32c-0.97-2.61-1.87-5.06-2.82-7.64
		c-4.34-0.51-8.63-0.17-12.86-0.21C468.88,55.35,469.81,58.7,467.71,60.95z M472.02,48.06c3.81-0.26,6.88,0.4,10.17-0.62
		c-1.58-5.15-3.06-9.98-4.65-15.14C475.16,37.29,474.04,42.43,472.02,48.06z"/>
	<path class="st1" d="M410.37,30.03c-3.75,0-6.7,0-9.73,0c-0.96-1.96-0.64-3.69-0.46-5.65c9.64,0,19.03,0,28.53,0
		c0.59,1.82,0.33,3.41,0.19,5.2c-3.46,0.95-6.99-0.09-10.59,0.74c0,10.14,0,20.08,0,30.08c-2.6,1.25-5.05,0.61-7.94,0.64
		C410.37,50.85,410.37,40.78,410.37,30.03z"/>
	<path class="st1" d="M458.89,24.44c0,1.89,0,3.37,0,5.03c-3.34,1.22-6.9-0.03-10.67,0.88c0,10.12,0,20.18,0,30.43
		c-2.84,0.52-5.22,0.44-8.08,0.09c0-10.28,0-20.34,0-30.87c-3.52,0-6.6,0-9.53,0c-0.9-2.05-0.68-3.65-0.35-5.56
		C439.66,24.44,449.04,24.44,458.89,24.44z"/>
	<path class="st1" d="M145.99,24.34c2.79,0,5.06,0,7.25,0c1.1,1.03,0.69,2.26,0.7,3.37c0.03,8.98,0.03,17.97,0.01,26.95
		c-0.01,7.86-5.72,14-13,14.37c-0.25-0.3-0.64-0.62-0.83-1.04c-0.4-0.88-1.14-1.66-0.95-3.05c6.76-3.1,6.53-9.59,6.74-15.62
		C146.21,41.18,145.99,33.03,145.99,24.34z"/>
	<path class="st2" d="M299.63,105.98c-1.77,0.15-3.09,0.43-4.81-0.42c-1.81-6.66-3.69-13.63-5.6-20.67
		c1.28-1.26,2.74-0.68,4.41-0.57c2.1,4.55,1.78,9.88,3.93,14.9c1.34-5.18,2.57-9.94,3.76-14.58c1.47-0.79,2.75-0.57,4.18-0.24
		c1.82,4.32,2.61,9.01,4.07,13.92c2.55-4.54,1.68-9.68,3.87-13.89c1.39-0.48,2.67-0.43,4.44,0.09c-1.87,7.07-3.73,14.13-5.54,20.98
		c-1.69,0.96-3.16,0.65-4.9,0.45c-2.02-4.2-2.21-9.04-3.96-13.72C302.18,96.92,300.94,101.33,299.63,105.98z"/>
	<path class="st2" d="M339.14,84.14c3.58,0,6.57-0.19,9.53,0.04c6.01,0.46,7.81,4.34,4.55,9.55c0.67,1.34,2.26,1.98,2.73,3.58
		c0.24,6.63-1.63,8.71-8.12,8.83c-2.66,0.05-5.31,0.01-8.16,0.01c-1.06-3.71-0.37-7.35-0.5-10.94
		C339.05,91.74,339.14,88.26,339.14,84.14z M344.16,102.49c2.83,0.97,4.93,0.61,6.75-1.06c0.29-1.54,0.62-2.99-0.68-4.63
		c-1.83-0.84-3.93-1.12-6.06-0.08C344.16,98.71,344.16,100.5,344.16,102.49z M349.99,88.5c-1.99-1.52-3.8-1.65-5.71-0.82
		c-0.28,1.82-0.52,3.43,0.14,4.96C349.65,93.18,349.79,93.08,349.99,88.5z"/>
	<path class="st2" d="M268.93,96.23c0.82,1.59,2.1,2.75,3.54,3.79c1.23-1.54,0.2-3.2,0.99-4.46c0.96-0.71,1.94-0.37,3.07-0.25
		c1.18,2.4,0.41,4.73-0.49,7c0.38,1.22,2.66,1.23,1.83,3.13c-0.18,0.17-0.41,0.57-0.64,0.57c-3.96,0.07-7.92,0.1-11.88,0.13
		c-1.35,0.01-2.61-0.29-3.84-0.87c-4.19-1.96-4.93-5.95-1.62-9.18c0.58-0.57,1.3-0.99,1.95-1.48c-2.44-5.38-2.22-7.52,0.99-9.61
		c2.74-1.79,6.98-1.14,9.02,1.38C274.01,89.05,273.38,91.21,268.93,96.23z M266.66,93c1.94-0.55,2.56-1.92,2.31-3.76
		c-0.15-1.12-1-1.73-2-1.87c-1.57-0.23-2.39,0.71-2.73,2.15C264.41,91.14,265.29,92.24,266.66,93z M264.29,97.37
		c-2.18,0.92-2.49,2.32-1.8,4.1c2.72,1.39,2.72,1.39,5.75,0.82C266.84,100.55,265.55,98.95,264.29,97.37z"/>
	<path class="st0" d="M475.02,99.46c0-5.44,0-10.07,0-14.52c1.13-1.26,2.32-0.54,3.73-0.85c0,7.32,0,14.39,0,21.49
		c-0.08,0.1-0.18,0.33-0.3,0.34c-1.3,0.08-2.61,0.14-4.05,0.2c-3.03-4.6-6-9.11-9.37-14.22c0,5.02,0,9.32,0,13.46
		c-1.18,1.12-2.31,0.76-3.75,0.5c0-7.02,0-14.07,0-21.21c2.64-1.38,4.25-0.07,5.63,2.13C469.45,90.81,472.04,94.81,475.02,99.46z"/>
	<path class="st2" d="M451.77,102.01c0.47-1.59,0.37-2.89,0.15-4.21c-0.8-1.14-3.98-0.08-2.59-3.28c2.14-0.76,4.56-0.34,7.29-0.22
		c0.54,3.38,0.23,6.65,0.22,9.98c-3.32,2.17-6.95,2-10.58,1.81c-1.55-0.08-2.88-0.79-4.11-1.64c-4.57-3.15-4.6-7.88-3.89-12.56
		c0.6-3.96,3.31-6.34,7.22-7.35c2.8-0.72,5.64-0.57,8.41-0.12c1.9,0.31,2.34,1.68,0.92,3.54c-3.65,0.32-8.32-1.96-10.9,2.75
		c-1.94,3.54-0.88,7.05,0.63,10.3C446.75,103.11,449.1,102.9,451.77,102.01z"/>
	<path class="st2" d="M235.44,84.12c7.38-0.03,10.51,5.46,10.26,11.87c-0.21,5.45-3.95,9.42-8.63,10.1
		c-7.07,1.02-11.93-3.16-12.04-10.37C224.92,88.2,228.6,84.09,235.44,84.12z M229.92,94.77c0.09,1.33-0.04,2.72,0.32,3.97
		c0.63,2.19,2.04,3.9,4.43,4.19c2.4,0.28,4.12-0.95,5.13-3.13c1.58-3.4,1.54-6.76-0.4-10c-1.8-3.01-4.96-3.34-7.54-1
		C230.03,90.47,229.97,92.58,229.92,94.77z"/>
	<path class="st0" d="M370.16,106.14c0-7.41,0-14.33,0-21.54c3.42-0.96,7.08-0.7,10.59-0.24c4.31,0.57,7.19,4.3,7.39,8.65
		c0.43,9.25-3.23,13.11-12.46,13.12C373.9,106.14,372.12,106.14,370.16,106.14z M374.53,102.36c4.62,0.88,6.68,0.14,8.12-2.59
		c1.53-2.91,1.07-8.72-0.88-10.85c-1.66-1.82-3.86-2-7.41-0.47C374.26,92.93,374.05,97.52,374.53,102.36z"/>
	<path class="st2" d="M397.09,96.74c0,1.99,0,3.81,0,5.81c2.99,1.31,6.23,0.02,9.24,0.83c0.83,0.6,0.64,1.39,0.35,2.48
		c-4.67,0.59-9.38,0.25-14.32,0.21c0-7.34,0-14.27,0-21.49c4.32-1.01,8.73-0.13,12.71-0.49c1.2,1.02,0.96,1.78,0.51,2.88
		c-2.61,0.11-5.36,0.24-8.32,0.37c0,1.84,0,3.45,0,5.25c1.78,1.29,4.1-0.01,6.11,0.82c0.79,0.61,0.59,1.39,0.36,2.22
		C401.7,96.95,399.11,95.35,397.09,96.74z"/>
	<path class="st2" d="M202.49,87.89c-2.56,1.05-5.38-1.93-7.55,0.96c-0.67,2,0.5,3.01,2.11,3.83c1.76,0.91,3.62,1.66,5.09,3.06
		c3.42,3.26,2.64,7.68-1.69,9.65c-2.88,1.31-5.85,0.93-8.76,0.31c-1.56-0.33-2.04-1.54-1.21-3.33c2.61-1.31,6.04,2.32,8.54-0.91
		c0.51-2.12-0.85-2.97-2.46-3.7c-2.13-0.97-4-2.32-5.6-4.05c-2.71-2.93-1.51-7.98,2.56-9.14c2.61-0.74,5.25-0.72,7.84-0.04
		C202.9,84.94,203.46,86.06,202.49,87.89z"/>
	<path class="st2" d="M410.12,104.43c0.39-0.81,0.67-1.4,0.97-2.04c2.85-1.03,6.2,1.94,8.76-1.1c0.04-2.2-1.58-3.1-3.22-3.91
		c-1.79-0.88-3.59-1.73-4.98-3.22c-2.85-3.08-2.15-7.32,1.63-9.08c3.13-1.46,6.36-1.47,9.36,0.01c0.8,1.14,0.65,2.03-0.15,3.02
		c-2.33,0.43-5.05-2.11-7.31,0.6c-0.66,1.77,0.35,2.7,1.78,3.5c1.59,0.88,3.11,1.89,4.69,2.78c2.45,1.38,3.53,3.5,3.12,6.21
		c-0.38,2.53-2.69,4.59-5.63,4.84C416.23,106.28,413.17,106.68,410.12,104.43z"/>
	<path class="st0" d="M334.96,103.33c0.12,1.13,0.32,1.79-0.4,2.58c-4.21,0-8.63,0-13.32,0c0-7.19,0-14.23,0-21.53
		c4.22,0,8.31,0,12.32,0c0.86,0.72,0.67,1.48,0.22,2.57c-2.6,0.12-5.36,0.24-8.28,0.37c-0.4,1.86-0.33,3.47-0.1,5.17
		c1.91,1.4,4.26,0.04,6.22,0.97c0.73,0.66,0.57,1.42,0.19,2.25c-1.91,1.08-4.24-0.22-6.37,0.98c0,1.9,0,3.83,0,6.07
		C328.46,103.6,331.65,102.8,334.96,103.33z"/>
	<path class="st0" d="M221,84.44c0.13,0.94,0.33,1.59-0.38,2.52c-2.45,0.11-5.2,0.23-8.16,0.36c0,1.88,0,3.48,0,5.25
		c1.87,1.21,4.17,0.1,6,0.74c0.89,0.8,0.72,1.56,0.35,2.39c-1.91,1.09-4.24-0.22-6.38,0.98c0,1.9,0,3.83,0,6.02
		c3.02,0.98,6.22-0.01,9.06,0.59c0.87,0.9,0.72,1.64,0.18,2.61c-4.32,0-8.74,0-13.43,0c0-7.19,0-14.23,0-21.48
		C212.6,84.44,216.82,84.44,221,84.44z"/>
	<path class="st2" d="M428.45,84.68c1.44-0.92,2.75-0.39,4.35-0.54c0,7.26,0,14.32,0,21.5c-1.28,0.83-2.68,0.6-4.35,0.08
		C428.45,98.82,428.45,91.89,428.45,84.68z"/>
	<path class="st3" d="M112.06,65.14c0,14.65-0.04,29.3,0.03,43.95c0.02,3.95-0.9,7.57-2.96,10.89c-2.83,4.56-6.93,7.13-12.35,7.14
		c-26.14,0.04-52.28,0.08-78.41-0.02c-8.13-0.03-14.52-6.73-15.24-15.51c-0.08-0.99-0.05-2-0.05-3c0-28.97,0.03-57.94-0.03-86.9
		C3.02,17.58,3.83,13.78,6,10.3c2.84-4.56,6.94-7.13,12.36-7.14c26.14-0.05,52.28-0.09,78.41,0.02c8.5,0.03,15.02,7.18,15.25,16.51
		c0.18,7.15,0.05,14.32,0.05,21.48C112.06,49.16,112.06,57.15,112.06,65.14z M77.29,57.38c0.12,2.99-0.32,5.72,0.36,8.82
		c2.81,0,5.41,0,8.22,0c0,3.8,0,7.23,0,10.55c-2.79,2.02-5.86,1.36-8.8,1.57c-5.82,0.41-9.54-2.66-11.73-7.56
		c-2.49-5.57-2.96-11.51-1.88-17.54c1.63-9.12,8.97-13.57,16.68-13.11c4.63,0.28,9.06,1.36,13.62,2.92
		c0.45-3.32,0.45-6.41,0.29-9.26c-2.56-1.92-5.37-1.8-7.89-2.28c-3.39-0.63-6.98-0.49-10.46-0.32
		c-11.53,0.57-20.16,6.73-23.54,17.41c-1.77,5.6-1.76,11.35-1.08,17.14c0.98,8.47,6.76,17.51,16.41,20.57
		c10.46,3.32,20.07,1.02,29.76-2.94c-0.03-8.86,0.06-17.43-0.06-25.97C90.22,57.38,83.96,57.38,77.29,57.38z M28.13,32.34
		c0,2.05,0,3.54,0,5.03c-0.02,12.5,0.06,24.99-0.1,37.49c-0.1,7.74-1.77,14.87-9.68,18.65c-0.13,0.06-0.18,0.27-0.25,0.38
		c-0.22,1.31,0.63,2.25,1.11,3.27c0.47,1,0.67,2.27,1.45,2.56c1.4,0.42,2.07-0.26,2.86-0.39c10.14-1.71,16.93-11.24,16.62-21.67
		c-0.42-14.15-0.08-28.32-0.09-42.48c0-0.95,0.33-2.02-0.67-2.84C35.84,32.34,32.24,32.34,28.13,32.34z"/>
	<path class="st4" d="M77.29,57.38c6.67,0,12.93,0,19.87,0c0.11,8.54,0.02,17.11,0.06,25.97c-9.68,3.96-19.29,6.26-29.76,2.94
		c-9.65-3.06-15.42-12.11-16.41-20.57c-0.67-5.8-0.69-11.54,1.08-17.14c3.38-10.68,12.01-16.84,23.54-17.41
		c3.48-0.17,7.07-0.31,10.46,0.32c2.52,0.47,5.34,0.35,7.89,2.28c0.17,2.85,0.16,5.94-0.29,9.26c-4.57-1.56-8.99-2.64-13.62-2.92
		c-7.7-0.47-15.04,3.99-16.68,13.11c-1.08,6.03-0.61,11.97,1.88,17.54c2.19,4.9,5.92,7.97,11.73,7.56c2.93-0.2,6.01,0.46,8.8-1.57
		c0-3.33,0-6.75,0-10.55c-2.81,0-5.41,0-8.22,0C76.97,63.11,77.4,60.37,77.29,57.38z"/>
	<path class="st4" d="M28.13,32.34c4.1,0,7.71,0,11.25,0c1,0.82,0.67,1.89,0.67,2.84c0.01,14.16-0.33,28.33,0.09,42.48
		c0.31,10.43-6.47,19.96-16.62,21.67c-0.79,0.13-1.46,0.81-2.86,0.39c-0.78-0.28-0.99-1.56-1.45-2.56
		c-0.48-1.02-1.33-1.97-1.11-3.27c0.07-0.11,0.12-0.32,0.25-0.38c7.91-3.79,9.57-10.91,9.68-18.65c0.17-12.49,0.08-24.99,0.1-37.49
		C28.13,35.88,28.13,34.39,28.13,32.34z"/>
</g>
</svg>
